Coordinates
nRows=207
nColumns=2
inDegrees=yes
endheader
time	ankle_angle_r	
12.5746	 -0.488315	
12.6079	 -0.494951	
12.6411	 -0.500803	
12.6744	 -0.502140	
12.7077	 -0.500267	
12.7409	 -0.498377	
12.7742	 -0.496492	
12.8075	 -0.495438	
12.8407	 -0.496583	
12.874	 -0.500846	
12.9073	 -0.507598	
12.9405	 -0.512261	
12.9738	 -0.512510	
13.0071	 -0.511693	
13.0403	 -0.512748	
13.0736	 -0.516638	
13.1069	 -0.522407	
13.1401	 -0.526655	
13.1734	 -0.528131	
13.2067	 -0.528141	
13.2399	 -0.527673	
13.2732	 -0.528783	
13.3065	 -0.531385	
13.3397	 -0.531603	
13.373	 -0.529643	
13.4062	 -0.529000	
13.4395	 -0.530984	
13.4728	 -0.537109	
13.506	 -0.545185	
13.5393	 -0.547862	
13.5726	 -0.543982	
13.6058	 -0.538225	
13.6391	 -0.533191	
13.6724	 -0.531904	
13.7056	 -0.534892	
13.7389	 -0.537405	
13.7722	 -0.538897	
13.8054	 -0.541508	
13.8387	 -0.542663	
13.872	 -0.541977	
13.9052	 -0.542266	
13.9385	 -0.542189	
13.9718	 -0.540552	
14.005	 -0.538124	
14.0383	 -0.533124	
14.0716	 -0.527504	
14.1048	 -0.526794	
14.1381	 -0.530099	
14.1714	 -0.535737	
14.2046	 -0.544979	
14.2379	 -0.552186	
14.2712	 -0.550304	
14.3044	 -0.540688	
14.3377	 -0.528164	
14.371	 -0.519048	
14.4042	 -0.517515	
14.4375	 -0.519167	
14.4708	 -0.520087	
14.504	 -0.522166	
14.5373	 -0.524306	
14.5706	 -0.522670	
14.6038	 -0.516000	
14.6371	 -0.505571	
14.6704	 -0.495561	
14.7036	 -0.489833	
14.7369	 -0.487315	
14.7702	 -0.484162	
14.8034	 -0.478224	
14.8367	 -0.472183	
14.87	 -0.470314	
14.9032	 -0.470252	
14.9365	 -0.467900	
14.9698	 -0.466177	
15.003	 -0.467339	
15.0363	 -0.467986	
15.0696	 -0.464660	
15.1028	 -0.456055	
15.1361	 -0.446379	
15.1694	 -0.442544	
15.2026	 -0.442634	
15.2359	 -0.440386	
15.2692	 -0.436120	
15.3024	 -0.432711	
15.3357	 -0.432052	
15.369	 -0.434366	
15.4022	 -0.434273	
15.4355	 -0.428369	
15.4687	 -0.421611	
15.502	 -0.417407	
15.5353	 -0.415390	
15.5685	 -0.415871	
15.6018	 -0.416256	
15.6351	 -0.414943	
15.6683	 -0.414784	
15.7016	 -0.415189	
15.7349	 -0.414501	
15.7681	 -0.415960	
15.8014	 -0.420159	
15.8347	 -0.423105	
15.8679	 -0.423865	
15.9012	 -0.423375	
15.9345	 -0.422463	
15.9677	 -0.425468	
16.001	 -0.435009	
16.0343	 -0.447851	
16.0675	 -0.461662	
16.1008	 -0.474548	
16.1341	 -0.481990	
16.1673	 -0.482461	
16.2006	 -0.477729	
16.2339	 -0.471878	
16.2671	 -0.472490	
16.3004	 -0.480780	
16.3337	 -0.488936	
16.3669	 -0.492659	
16.4002	 -0.493431	
16.4335	 -0.493835	
16.4667	 -0.496661	
16.5	 -0.501224	
16.5333	 -0.504320	
16.5665	 -0.504740	
16.5998	 -0.501150	
16.6331	 -0.493359	
16.6663	 -0.486033	
16.6996	 -0.484325	
16.7329	 -0.490041	
16.7661	 -0.500392	
16.7994	 -0.508248	
16.8327	 -0.510264	
16.8659	 -0.509353	
16.8992	 -0.507023	
16.9325	 -0.504693	
16.9657	 -0.505385	
16.999	 -0.507445	
17.0323	 -0.507931	
17.0655	 -0.507033	
17.0988	 -0.504859	
17.1321	 -0.503760	
17.1653	 -0.507052	
17.1986	 -0.513109	
17.2319	 -0.519268	
17.2651	 -0.524427	
17.2984	 -0.526591	
17.3317	 -0.524637	
17.3649	 -0.518560	
17.3982	 -0.511105	
17.4315	 -0.509418	
17.4647	 -0.514766	
17.498	 -0.519723	
17.5312	 -0.520644	
17.5645	 -0.518632	
17.5978	 -0.514086	
17.631	 -0.509554	
17.6643	 -0.507254	
17.6976	 -0.505378	
17.7308	 -0.503449	
17.7641	 -0.501643	
17.7974	 -0.497760	
17.8306	 -0.494146	
17.8639	 -0.495172	
17.8972	 -0.497526	
17.9304	 -0.496066	
17.9637	 -0.489829	
17.997	 -0.480318	
18.0302	 -0.474667	
18.0635	 -0.479185	
18.0968	 -0.488679	
18.13	 -0.494862	
18.1633	 -0.494380	
18.1966	 -0.488322	
18.2298	 -0.484579	
18.2631	 -0.488337	
18.2964	 -0.493559	
18.3296	 -0.495568	
18.3629	 -0.495283	
18.3962	 -0.491308	
18.4294	 -0.485408	
18.4627	 -0.482982	
18.496	 -0.482534	
18.5292	 -0.480915	
18.5625	 -0.480314	
18.5958	 -0.481574	
18.629	 -0.483024	
18.6623	 -0.482775	
18.6956	 -0.478067	
18.7288	 -0.470957	
18.7621	 -0.469676	
18.7954	 -0.479020	
18.8286	 -0.494299	
18.8619	 -0.505440	
18.8952	 -0.507760	
18.9284	 -0.505226	
18.9617	 -0.501447	
18.995	 -0.497471	
19.0282	 -0.494701	
19.0615	 -0.492326	
19.0948	 -0.489030	
19.128	 -0.484521	
19.1613	 -0.478301	
19.1946	 -0.474396	
19.2278	 -0.477370	
19.2611	 -0.483160	
19.2944	 -0.487377	
19.3276	 -0.490913	
19.3609	 -0.490487	
19.3942	 -0.480631	
19.4274	 -0.463308	
